<?xml version="1.0" encoding="UTF-8" standalone="no"?>
<!DOCTYPE svg PUBLIC "-//W3C//DTD SVG 1.1//EN" "http://www.w3.org/Graphics/SVG/1.1/DTD/svg11.dtd">
<svg height="100%" stroke-miterlimit="10" style="fill-rule:nonzero;clip-rule:evenodd;stroke-linecap:round;stroke-linejoin:round;" version="1.1" viewBox="0 0 104.23 122.88" width="100%" xml:space="preserve" xmlns="http://www.w3.org/2000/svg" xmlns:vectornator="http://vectornator.io" xmlns:xlink="http://www.w3.org/1999/xlink">
<path d="M60.4932 89.8515C62.3722 89.5223 64.1483 89.5772 65.705 89.9407L65.705 53.355L26.9935 64.4713L26.9935 106.955C27.014 107.188 27.0278 107.428 27.0278 107.661L27.0278 107.668C27.0278 113.387 21.0273 119.065 13.621 120.348C6.22158 121.623 0.214259 118.023 0.214259 112.297C0.214259 106.577 6.22158 100.899 13.621 99.6237C16.4052 99.1437 18.9974 99.3562 21.1439 100.111L21.1439 47.814L21.4662 47.814L71.5615 36.3342L71.5615 95.2554C71.6506 95.6874 71.6986 96.1263 71.6986 96.5652C71.6986 96.5652 71.6986 96.5652 71.6986 96.572C71.6986 101.352 66.6788 106.097 60.5001 107.16C54.3144 108.23 49.3015 105.22 49.3015 100.44C49.2946 95.66 54.3076 90.9144 60.4932 89.8515L60.4932 89.8515L60.4932 89.8515Z" fill="currentColor" fill-rule="evenodd" opacity="1" stroke="none"/>
<path d="M91.9682 68.4862C91.9682 71.9899 89.129 74.829 85.6254 74.829C82.1234 74.829 79.2825 71.9898 79.2825 68.4862C79.2825 64.9825 82.1235 62.1433 85.6254 62.1433C89.1291 62.1433 91.9682 64.9826 91.9682 68.4862" fill="currentColor" fill-rule="evenodd" opacity="1" stroke="none"/>
<path d="M90.54 48.169C90.4864 46.7921 90.7986 45.4262 91.4465 44.2089C92.0943 42.9929 93.0531 41.9709 94.2264 41.2473C98.0517 39.1909 101.024 35.8414 102.611 31.7974C104.2 27.7549 104.302 23.2789 102.899 19.1674C101.496 15.0558 98.679 11.5757 94.9498 9.34597C91.2207 7.11762 86.8218 6.28404 82.5357 6.99518C78.2509 7.70632 74.3566 9.91407 71.5466 13.2276C68.7363 16.5413 67.1945 20.7436 67.1931 25.089L77.2001 25.089C77.2001 23.1137 77.903 21.2017 79.1809 19.6957C80.4587 18.1895 82.2304 17.1867 84.1794 16.8648C86.1286 16.5429 88.1286 16.9239 89.8231 17.9391C91.5178 18.9542 92.797 20.5388 93.4325 22.4095C94.068 24.2788 94.0185 26.3146 93.2936 28.1524C92.5686 29.9902 91.2152 31.5101 89.4736 32.4429C86.7019 34.0137 84.4088 36.3054 82.8351 39.0729C81.2615 41.8418 80.4665 44.9849 80.5339 48.1692L80.5339 51.7716L90.5394 51.7716L90.54 48.169Z" fill="currentColor" fill-rule="evenodd" opacity="1" stroke="none"/>
</svg>
